<?xml version="1.0" encoding="utf-8"?>
<!-- Generator: Adobe Illustrator 22.1.0, SVG Export Plug-In . SVG Version: 6.00 Build 0)  -->
<svg version="1.1" id="Camada_1" xmlns="http://www.w3.org/2000/svg" xmlns:xlink="http://www.w3.org/1999/xlink" x="0px" y="0px"
	 viewBox="0 0 100% 768" xml:space="xMidYMid meet">
<style type="text/css">
	.st0{clip-path:url(#SVGID_2_);}
	.st1{fill:#1B2335;}
	.st2{display:none;}
	.st3{display:inline;}
	.st4{clip-path:url(#SVGID_4_);fill:url(#SVGID_5_);}
	.st5{clip-path:url(#SVGID_4_);}
	.st6{clip-path:url(#SVGID_7_);fill:url(#SVGID_8_);}
	.st7{clip-path:url(#SVGID_7_);fill:url(#SVGID_9_);}
</style>
<g>
	<defs>
		<rect id="SVGID_1_" width="100%" height="768"/>
	</defs>
	<clipPath id="SVGID_2_">
		<use xlink:href="#SVGID_1_"  style="overflow:visible;"/>
	</clipPath>
	<g class="st0">
		<path class="st1" d="M-3,770C0.6,515-6.6,255-3,0h1371c-75.8,27.2-185.6,75.9-295.5,165.3C907.2,299.8,927.7,375,794,463
			c-155.4,102.3-250.5,45.1-492.3,136.4C161.3,652.4,58.5,722.6-3,770z"/>
		<g class="st2">
			<defs>
				<path id="SVGID_3_" d="M921.2,276.5v295.3c0,1.9-1.6,3.5-3.6,3.5H466.1c-2,0-3.6-1.6-3.6-3.5V276.5c0-1.9,1.6-3.5,3.6-3.5h451.5
					C919.6,273,921.2,274.6,921.2,276.5z"/>
			</defs>
			<clipPath id="SVGID_4_" class="st3">
				<use xlink:href="#SVGID_3_"  style="display:none;overflow:visible;"/>
			</clipPath>
			
				<linearGradient id="SVGID_5_" gradientUnits="userSpaceOnUse" x1="673.4327" y1="263.9315" x2="722.0917" y2="159.6624" gradientTransform="matrix(-0.4813 -0.8766 -0.8766 0.4813 1465.3225 877.008)">
				<stop  offset="0" style="stop-color:#E9A427"/>
				<stop  offset="1" style="stop-color:#E9DA42"/>
			</linearGradient>
			<path class="st4" d="M1064.8,621.6c60.8-9,63.4-56.9,44-83.5c-27.4-37.8-52.3-31.6-14.2-93.8c13-21.1,17.9-48.1,8.1-71.4
				c-7.1-16.8-21.7-30.5-39.3-35.6c-9.8-2.8-20.2-3-30.2-4.9c-10-1.9-20.4-5.9-26.2-14.2c-5.6-8-6.1-18.5-4.8-28.1
				c3.3-23.2,16.1-44.4,17.2-68c1-19.8-5.7-42.6-19.8-57.1c-18.5-18.9-47.4-23-72.7-24.4c-29.7-1.7-59.7,2.7-88,11.8
				c-36.2,11.7-69.6,31-99.4,54.5c-26.5,20.9-50.4,45.5-67.4,74.6c-26.8,45.9-42.3,120.8,12.3,153.7c65.8,39.6,108.2-29,111.8,38.5
				c2.1,40.4,31.4,103.5,111.2,72.1C987.2,514.3,977.2,634.6,1064.8,621.6z"/>
			<g class="st5">
				<defs>
					<path id="SVGID_6_" d="M1064.8,621.6c60.8-9,63.4-56.9,44-83.5c-27.4-37.8-52.3-31.6-14.2-93.8c13-21.1,17.9-48.1,8.1-71.4
						c-7.1-16.8-21.7-30.5-39.3-35.6c-9.8-2.8-20.2-3-30.2-4.9c-10-1.9-20.4-5.9-26.2-14.2c-5.6-8-6.1-18.5-4.8-28.1
						c3.3-23.2,16.1-44.4,17.2-68c1-19.8-5.7-42.6-19.8-57.1c-18.5-18.9-47.4-23-72.7-24.4c-29.7-1.7-59.7,2.7-88,11.8
						c-36.2,11.7-69.6,31-99.4,54.5c-26.5,20.9-50.4,45.5-67.4,74.6c-26.8,45.9-42.3,120.8,12.3,153.7
						c65.8,39.6,108.2-29,111.8,38.5c2.1,40.4,31.4,103.5,111.2,72.1C987.2,514.3,977.2,634.6,1064.8,621.6z"/>
				</defs>
				<clipPath id="SVGID_7_" class="st3">
					<use xlink:href="#SVGID_6_"  style="display:none;overflow:visible;"/>
				</clipPath>
				<linearGradient id="SVGID_8_" gradientUnits="userSpaceOnUse" x1="825.1815" y1="411.2776" x2="838.7864" y2="290.8483">
					<stop  offset="0" style="stop-color:#E9A427"/>
					<stop  offset="1" style="stop-color:#E9DA42"/>
				</linearGradient>
				<path class="st6" d="M657.7,361.2c1.2-40.7,33.2-46.1,52.7-35.6c27.5,15,25.4,31.9,64.2,1.9c13.2-10.2,30.9-15.6,47.4-11
					c11.8,3.3,22.2,11.8,27.1,23c2.7,6.2,3.6,13,5.7,19.5c2.1,6.5,5.6,12.9,11.6,16.1c5.8,3.1,12.9,2.6,19.3,0.9
					c15.3-4,28.6-14.1,44.3-16.7c13.3-2.2,29.1,0.4,39.9,8.5c14.2,10.7,19.2,29.3,22.2,45.9c3.5,19.4,2.9,39.5-1,58.8
					c-5,24.7-15.3,48.2-28.8,69.7c-12,19.1-26.6,36.8-44.8,50.2c-28.8,21.3-77.9,37.4-104.3,4.1c-31.8-40.1,11-73.4-34.7-70.4
					c-27.3,1.8-72.1-12.4-57.3-67.4C736,403.7,655.9,419.8,657.7,361.2z"/>
				<linearGradient id="SVGID_9_" gradientUnits="userSpaceOnUse" x1="763.8799" y1="523.1265" x2="865.8142" y2="329.8547">
					<stop  offset="0" style="stop-color:#E9A427"/>
					<stop  offset="1" style="stop-color:#E9DA42"/>
				</linearGradient>
				<path class="st7" d="M662.3,367.2c14.2-35.8,44.4-30.5,58.3-15c19.6,22,12.3,36.3,56.4,21.9c15-4.9,32.5-4.1,45.6,5.1
					c9.4,6.7,15.9,17.5,16.6,29c0.4,6.4-1,12.7-1.2,19.1c-0.3,6.4,0.8,13.2,5.1,18c4.2,4.6,10.6,6.3,16.8,6.9
					c14.9,1.3,29.9-3.5,44.8-0.9c12.5,2.2,25.7,9.5,32.7,20.2c9.1,14,7.6,32.1,4.9,47.7c-3.1,18.3-10.1,36-19.8,51.9
					c-12.4,20.4-29.1,38-48,52.8c-16.8,13.2-35.5,24.3-56,30.5c-32.4,9.8-81.2,8.7-94-29.2c-15.3-45.6,33.4-61.8-8.2-73.5
					c-24.9-7-60-33.8-29.2-77.9C718.2,429.6,641.9,418.7,662.3,367.2z"/>
			</g>
		</g>
	</g>
</g>
</svg>
